<?xml version="1.0" standalone="no"?>
<!DOCTYPE svg PUBLIC "-//W3C//DTD SVG 20010904//EN"
 "http://www.w3.org/TR/2001/REC-SVG-20010904/DTD/svg10.dtd">
<svg version="1.0" xmlns="http://www.w3.org/2000/svg"
 width="500.000000pt" height="500.000000pt" viewBox="0 0 500.000000 500.000000"
 preserveAspectRatio="xMidYMid meet">

<g transform="translate(0.000000,500.000000) scale(0.100000,-0.100000)"
fill="#000000" stroke="none">
<path d="M0 2500 l0 -2500 2500 0 2500 0 0 2500 0 2500 -2500 0 -2500 0 0
-2500z m2852 1696 c695 -148 1224 -659 1385 -1337 l26 -109 119 0 118 0 -2
-417 -3 -418 -145 -3 -145 -3 -28 -79 c-120 -338 -389 -678 -693 -877 -192
-125 -452 -228 -679 -269 -141 -26 -469 -26 -610 0 -226 41 -487 144 -678 269
-306 199 -574 537 -693 874 l-29 82 -145 3 -145 3 -3 418 -2 417 118 0 119 0
26 109 c159 668 682 1181 1356 1331 150 33 223 39 426 35 154 -3 212 -9 307
-29z"/>
<path d="M2225 4170 c-258 -45 -477 -131 -680 -265 -318 -210 -557 -509 -681
-852 -28 -77 -84 -276 -84 -297 0 -3 44 -6 98 -6 l97 0 18 83 c67 298 211 561
429 778 294 292 677 449 1095 449 190 0 328 -21 492 -76 328 -109 590 -302
794 -586 108 -151 215 -395 250 -573 l14 -70 76 -3 c42 -2 77 0 77 3 0 22 -56
221 -84 298 -192 530 -655 945 -1213 1086 -213 54 -497 67 -698 31z"/>
<path d="M2410 3779 c0 -7 16 -8 45 -3 25 3 45 3 45 -1 0 -4 -22 -44 -50 -90
-27 -46 -50 -86 -50 -89 0 -8 54 -8 103 0 55 10 45 20 -15 15 l-52 -3 15 23
c38 60 89 147 89 153 0 3 -29 6 -65 6 -39 0 -65 -4 -65 -11z"/>
<path d="M2636 3713 c-4 -38 -9 -80 -12 -95 -4 -21 -2 -28 9 -28 11 0 17 16
22 53 3 28 9 71 12 95 4 33 2 42 -10 42 -11 0 -16 -17 -21 -67z"/>
<path d="M2245 3765 c-5 -2 -22 -6 -36 -9 l-26 -6 20 -92 c11 -51 20 -94 21
-95 5 -6 116 22 116 29 0 11 -11 10 -49 -3 -38 -13 -40 -12 -51 35 -7 34 -6
36 24 46 l31 10 -32 -3 c-25 -3 -33 1 -37 17 -13 46 -8 56 28 56 19 0 38 5 41
10 6 9 -27 13 -50 5z"/>
<path d="M2761 3678 c-11 -46 -21 -89 -21 -96 0 -28 25 -4 33 31 13 53 33 46
53 -18 10 -30 24 -57 32 -60 24 -9 25 1 3 44 -27 52 -26 57 7 73 54 26 22 87
-54 103 l-31 6 -22 -83z m93 46 c31 -31 15 -64 -31 -64 -34 0 -34 1 -28 33 4
17 9 35 12 40 7 12 31 8 47 -9z"/>
<path d="M2086 3640 l4 -85 -57 63 c-40 42 -62 60 -71 54 -9 -6 -6 -14 13 -32
20 -19 25 -33 25 -69 l-1 -46 -55 59 c-39 42 -57 57 -65 49 -8 -8 9 -31 56
-82 37 -39 71 -71 75 -71 5 0 6 28 3 63 l-5 62 46 -45 46 -44 -1 54 c0 30 -5
78 -9 105 -7 41 -8 34 -4 -35z"/>
<path d="M2983 3591 l-41 -88 44 -22 c48 -23 64 -26 64 -13 0 5 -18 14 -40 21
l-40 12 20 40 21 39 29 -15 c17 -9 30 -11 30 -5 0 5 -4 10 -8 10 -5 0 -16 6
-26 13 -15 11 -16 17 -5 40 14 31 34 34 60 11 10 -9 24 -14 31 -12 10 4 -79
58 -95 58 -2 0 -22 -40 -44 -89z"/>
<path d="M2442 2856 c-43 -44 -62 -72 -62 -89 0 -17 -7 -28 -20 -32 -12 -4
-41 -42 -67 -87 -39 -67 -54 -83 -94 -104 -26 -13 -54 -32 -61 -42 -7 -10 -26
-34 -41 -52 l-28 -33 -37 35 c-74 68 -68 68 -121 10 -37 -40 -55 -52 -77 -52
-23 0 -44 -15 -99 -71 -70 -72 -70 -72 -21 -39 36 24 50 29 56 20 5 -8 15 -10
26 -5 11 4 36 8 57 10 21 1 46 10 56 19 9 9 29 16 43 16 24 0 25 2 20 45 -2
25 -2 45 0 45 3 0 22 -13 42 -29 l36 -29 -21 -26 -20 -26 51 0 c28 0 61 5 73
12 12 6 47 17 77 24 51 13 58 12 108 -11 29 -13 66 -33 82 -45 29 -21 60 -27
60 -11 0 19 -116 114 -187 153 l-74 40 31 19 c17 11 53 54 80 97 27 43 60 84
73 91 13 7 31 25 39 39 9 15 27 37 41 50 l25 23 21 -27 c11 -15 21 -40 21 -55
0 -26 -3 -29 -33 -29 -27 0 -44 -11 -97 -65 l-64 -65 47 0 c43 0 49 -3 67 -33
22 -37 132 -105 214 -133 27 -9 77 -38 112 -65 58 -44 64 -46 64 -26 1 21 1
21 15 4 7 -11 17 -36 20 -58 4 -21 12 -42 17 -46 8 -4 9 4 5 25 -12 61 52 62
120 3 25 -23 50 -41 55 -41 18 0 -159 205 -211 245 -41 31 -64 61 -104 135
-39 71 -63 102 -97 126 -70 51 -90 74 -120 142 -16 34 -31 62 -33 62 -2 0 -32
-29 -65 -64z m258 -271 c16 -8 45 -40 65 -70 20 -30 52 -64 71 -75 61 -38 36
-42 -34 -5 -41 21 -94 61 -132 100 l-64 65 32 0 c18 0 46 -7 62 -15z"/>
<path d="M2975 2707 c-11 -18 -34 -38 -50 -45 -28 -13 -38 -25 -91 -107 -18
-29 -18 -30 0 -15 11 8 28 15 39 15 12 0 27 12 37 30 9 17 34 42 56 57 35 25
40 26 52 11 17 -24 15 -51 -7 -82 l-20 -27 35 -1 c19 -1 48 -7 65 -13 28 -12
29 -15 29 -74 l0 -61 23 29 c18 22 28 27 45 22 17 -6 22 -18 28 -66 7 -63 18
-70 29 -20 4 17 7 30 9 30 1 0 33 -13 71 -30 97 -41 124 -38 48 5 -72 41 -138
104 -185 176 -23 36 -44 56 -71 66 -27 11 -49 32 -78 74 -22 33 -41 59 -42 59
-1 -1 -11 -15 -22 -33z"/>
<path d="M911 2318 c-1 -35 1 -38 27 -37 23 2 24 2 5 6 -27 5 -30 20 -5 26 15
4 15 5 0 6 -9 0 -19 9 -21 19 -3 9 -5 0 -6 -20z"/>
<path d="M970 2343 c0 -6 7 -16 15 -23 8 -7 15 -20 16 -29 0 -10 2 -11 6 -4 2
7 -5 25 -16 39 -12 15 -21 22 -21 17z"/>
<path d="M1050 2315 c0 -19 3 -35 8 -35 4 0 7 16 7 35 0 19 -3 35 -7 35 -5 0
-8 -16 -8 -35z"/>
<path d="M3906 2342 c6 -4 14 -14 17 -22 4 -10 6 -8 6 8 1 15 -5 22 -16 22
-11 0 -14 -3 -7 -8z"/>
<path d="M4010 2346 c0 -2 7 -6 15 -10 8 -3 15 -1 15 4 0 6 -7 10 -15 10 -8 0
-15 -2 -15 -4z"/>
<path d="M4082 2336 c7 -8 15 -12 17 -11 5 6 -10 25 -20 25 -5 0 -4 -6 3 -14z"/>
<path d="M3982 2315 c0 -16 2 -22 5 -12 2 9 2 23 0 30 -3 6 -5 -1 -5 -18z"/>
<path d="M1879 2285 c-41 -7 -102 -20 -135 -29 -58 -17 -229 -94 -222 -101 1
-1 41 10 88 25 261 85 717 65 1130 -49 148 -42 246 -54 357 -47 144 9 265 58
339 138 52 57 61 74 17 36 -151 -133 -365 -152 -670 -59 -237 71 -438 101
-671 100 -86 -1 -191 -7 -233 -14z"/>
<path d="M3898 2283 c6 -2 18 -2 25 0 6 3 1 5 -13 5 -14 0 -19 -2 -12 -5z"/>
<path d="M4013 2283 c9 -2 23 -2 30 0 6 3 -1 5 -18 5 -16 0 -22 -2 -12 -5z"/>
<path d="M4068 2283 c6 -2 18 -2 25 0 6 3 1 5 -13 5 -14 0 -19 -2 -12 -5z"/>
<path d="M840 1906 c0 -15 65 -176 95 -235 202 -402 554 -716 975 -869 365
-133 815 -133 1180 0 421 153 773 467 975 869 30 59 95 220 95 235 0 2 -42 4
-93 4 l-92 0 -49 -97 c-215 -436 -605 -740 -1082 -844 -142 -31 -405 -37 -557
-14 -518 80 -965 413 -1180 879 l-36 76 -115 0 c-64 0 -116 -2 -116 -4z"/>
<path d="M1597 1614 c-21 -23 -34 -45 -29 -48 8 -5 19 5 65 61 34 40 2 29 -36
-13z"/>
<path d="M3345 1641 c-3 -5 -1 -12 5 -16 5 -3 10 -18 10 -32 l0 -26 -24 22
c-15 14 -26 19 -31 12 -3 -6 -1 -11 4 -11 6 0 24 -18 40 -40 18 -25 32 -36 36
-30 4 6 -1 21 -12 32 -18 21 -18 21 24 14 24 -3 44 -2 48 4 4 6 -10 10 -34 10
-42 0 -46 5 -44 58 1 14 -13 16 -22 3z"/>
<path d="M1711 1527 c-17 -25 -31 -49 -31 -54 0 -4 12 10 27 31 27 37 28 38
34 15 4 -13 7 -38 8 -56 1 -46 14 -47 41 -2 14 21 28 39 33 39 4 0 5 5 1 11
-3 6 -14 -2 -25 -21 -24 -38 -39 -31 -39 18 0 64 -14 70 -49 19z"/>
<path d="M3225 1496 c31 -40 28 -42 -37 -22 -27 8 -52 10 -59 5 -8 -5 -9 -9
-4 -9 6 0 21 -20 35 -44 13 -25 28 -43 32 -40 4 3 -3 20 -17 38 -14 18 -25 36
-25 39 0 3 21 0 48 -8 72 -22 76 -20 48 27 -14 24 -31 45 -37 47 -7 2 0 -13
16 -33z"/>
<path d="M1899 1400 c-21 -38 -23 -50 -13 -54 8 -3 14 1 14 10 0 8 9 33 20 54
11 22 17 40 13 40 -5 0 -20 -22 -34 -50z"/>
<path d="M1978 1418 c15 -19 9 -50 -14 -73 -9 -8 -11 -15 -5 -15 36 0 54 67
24 91 -16 13 -17 12 -5 -3z"/>
<path d="M2980 1388 c0 -16 3 -19 9 -10 6 10 10 10 21 -3 10 -12 10 -15 -4
-15 -12 0 -16 -9 -14 -37 1 -36 1 -36 5 -6 5 38 29 50 45 23 7 -11 19 -20 26
-20 17 0 -58 89 -75 90 -7 0 -13 -10 -13 -22z"/>
<path d="M2104 1336 c-6 -22 -13 -47 -15 -55 -2 -7 3 -16 11 -19 8 -2 12 -1 8
3 -4 4 1 29 11 56 14 35 15 49 7 52 -7 3 -16 -12 -22 -37z"/>
<path d="M2830 1345 c14 -16 6 -35 -16 -35 -8 0 -14 9 -14 20 0 11 -6 20 -14
20 -12 0 -11 -7 1 -42 8 -23 12 -49 10 -58 -3 -13 1 -16 19 -12 20 4 21 6 9
19 -23 22 -19 45 8 41 16 -2 22 -9 21 -26 -1 -21 1 -21 14 -8 14 14 14 18 -3
36 -10 11 -15 23 -12 27 8 8 -11 33 -25 33 -6 0 -5 -6 2 -15z"/>
<path d="M2246 1280 c-15 -27 -23 -50 -18 -50 5 0 12 9 15 20 8 30 47 27 47
-4 0 -13 6 -26 14 -29 11 -5 12 1 6 26 -4 18 -11 44 -14 60 -4 15 -10 27 -15
27 -4 0 -20 -22 -35 -50z m30 3 c-10 -10 -19 5 -10 18 6 11 8 11 12 0 2 -7 1
-15 -2 -18z"/>
<path d="M2432 1260 c-1 -35 2 -60 8 -60 5 0 10 21 10 47 l0 47 45 -49 44 -50
-1 65 c-1 56 -2 58 -5 17 l-4 -49 -40 46 c-23 25 -44 46 -47 46 -4 0 -8 -27
-10 -60z"/>
</g>
</svg>
